HIERARCHY
ROOT Hips
{
	OFFSET 0.000000 83.214638 0.000000
	CHANNELS 6 Xposition Yposition Zposition Xrotation Yrotation Zrotation
	JOINT Pelvis
	{
		OFFSET 0.000000 0.000000 0.000000
		CHANNELS 3 Xrotation Yrotation Zrotation
		JOINT LeftUpLeg
		{
			OFFSET 8.479700 -4.795502 -0.379100
			CHANNELS 3 Xrotation Yrotation Zrotation
			JOINT LeftLeg
			{
				OFFSET 0.024144 -32.555107 0.112900
				CHANNELS 3 Xrotation Yrotation Zrotation
				JOINT LeftFoot
				{
					OFFSET -0.024144 -32.638630 -3.012600
					CHANNELS 3 Xrotation Yrotation Zrotation
					JOINT LeftToeBase
					{
						OFFSET 0.970200 -13.225400 11.864200
						CHANNELS 3 Xrotation Yrotation Zrotation
						End Site
						{
							OFFSET 0.000000 12.319262 0.000000
						}
					}
					JOINT LFootTongue
					{
						OFFSET 1.142400 -1.059800 6.665200
						CHANNELS 3 Xrotation Yrotation Zrotation
						End Site
						{
							OFFSET 0.000000 12.319262 0.000000
						}
					}
				}
				JOINT LeftPantLeg
				{
					OFFSET 0.918482 -16.533964 -2.284700
					CHANNELS 3 Xrotation Yrotation Zrotation
					End Site
					{
						OFFSET 0.350399 24.744368 0.000000
					}
				}
			}
		}
		JOINT RightUpLeg
		{
			OFFSET -8.479700 -4.795502 -0.379100
			CHANNELS 3 Xrotation Yrotation Zrotation
			JOINT RightLeg
			{
				OFFSET -0.023144 -32.555092 0.112900
				CHANNELS 3 Xrotation Yrotation Zrotation
				JOINT RightFoot
				{
					OFFSET 0.023144 -32.638641 -3.012700
					CHANNELS 3 Xrotation Yrotation Zrotation
					JOINT RightToeBase
					{
						OFFSET -0.970200 -13.225400 11.864200
						CHANNELS 3 Xrotation Yrotation Zrotation
						End Site
						{
							OFFSET 0.000000 12.319244 0.000000
						}
					}
					JOINT RFootTongue
					{
						OFFSET -1.142200 -1.059800 6.665200
						CHANNELS 3 Xrotation Yrotation Zrotation
						End Site
						{
							OFFSET 0.000000 12.319243 0.000000
						}
					}
				}
				JOINT RightPantLeg
				{
					OFFSET -0.919482 -16.533978 -2.284800
					CHANNELS 3 Xrotation Yrotation Zrotation
					End Site
					{
						OFFSET -0.350400 24.744419 0.000000
					}
				}
			}
		}
	}
	JOINT Spine
	{
		OFFSET 0.000000 7.722000 1.166200
		CHANNELS 3 Xrotation Yrotation Zrotation
		JOINT Spine1
		{
			OFFSET 0.000000 12.024101 0.248800
			CHANNELS 3 Xrotation Yrotation Zrotation
			JOINT Spine2
			{
				OFFSET 0.000000 11.502998 -0.491200
				CHANNELS 3 Xrotation Yrotation Zrotation
				JOINT Neck
				{
					OFFSET 0.000000 18.430702 -3.123100
					CHANNELS 3 Xrotation Yrotation Zrotation
					JOINT Head
					{
						OFFSET 0.000000 9.051102 1.034000
						CHANNELS 3 Xrotation Yrotation Zrotation
						JOINT HairB
						{
							OFFSET 0.208400 24.786102 24.822300
							CHANNELS 3 Xrotation Yrotation Zrotation
							End Site
							{
								OFFSET 0.000000 32.263779 0.000000
							}
						}
						JOINT HairA
						{
							OFFSET -7.081100 24.428299 23.196600
							CHANNELS 3 Xrotation Yrotation Zrotation
							End Site
							{
								OFFSET 0.000000 32.263779 0.000000
							}
						}
						JOINT Hat
						{
							OFFSET 16.728800 15.048294 -15.439601
							CHANNELS 3 Xrotation Yrotation Zrotation
							End Site
							{
								OFFSET 0.000000 32.263779 0.000000
							}
						}
					}
				}
				JOINT LeftShoulder
				{
					OFFSET 6.197800 13.665199 -4.064700
					CHANNELS 3 Xrotation Yrotation Zrotation
					JOINT LeftArm
					{
						OFFSET 7.778100 -0.187103 -1.709300
						CHANNELS 3 Xrotation Yrotation Zrotation
						JOINT LeftForeArm
						{
							OFFSET 22.049376 0.000000 0.000000
							CHANNELS 3 Xrotation Yrotation Zrotation
							JOINT LeftHand
							{
								OFFSET 23.009392 0.000000 0.000000
								CHANNELS 3 Xrotation Yrotation Zrotation
								JOINT LeftHandThumb1
								{
									OFFSET 3.507191 -2.063065 3.133727
									CHANNELS 3 Xrotation Yrotation Zrotation
									JOINT LeftHandThumb2
									{
										OFFSET 3.101337 -1.790558 1.790558
										CHANNELS 3 Xrotation Yrotation Zrotation
										JOINT LeftHandThumb3
										{
											OFFSET 3.058640 -1.765907 1.765906
											CHANNELS 3 Xrotation Yrotation Zrotation
											End Site
											{
												OFFSET -0.415260 3.926476 -0.049563
											}
										}
									}
								}
								JOINT LeftHandIndex1
								{
									OFFSET 11.334419 -0.901459 3.706815
									CHANNELS 3 Xrotation Yrotation Zrotation
									JOINT LeftHandIndex2
									{
										OFFSET 3.283112 0.000000 0.000000
										CHANNELS 3 Xrotation Yrotation Zrotation
										JOINT LeftHandIndex3
										{
											OFFSET 3.323853 0.000000 0.000000
											CHANNELS 3 Xrotation Yrotation Zrotation
											End Site
											{
												OFFSET -1.135597 3.097809 0.402452
											}
										}
									}
								}
								JOINT LeftHandMiddle1
								{
									OFFSET 11.335861 0.000000 0.000000
									CHANNELS 3 Xrotation Yrotation Zrotation
									JOINT LeftHandMiddle2
									{
										OFFSET 3.410492 0.000000 0.000000
										CHANNELS 3 Xrotation Yrotation Zrotation
										JOINT LeftHandMiddle3
										{
											OFFSET 3.312172 0.000000 0.000000
											CHANNELS 3 Xrotation Yrotation Zrotation
											End Site
											{
												OFFSET -1.150200 3.080154 0.400270
											}
										}
									}
								}
								JOINT LeftHandRing1
								{
									OFFSET 11.514786 -0.013176 -3.003090
									CHANNELS 3 Xrotation Yrotation Zrotation
									JOINT LeftHandRing2
									{
										OFFSET 3.053307 0.000000 0.000000
										CHANNELS 3 Xrotation Yrotation Zrotation
										JOINT LeftHandRing3
										{
											OFFSET 3.295807 0.000000 0.000000
											CHANNELS 3 Xrotation Yrotation Zrotation
											End Site
											{
												OFFSET -1.281006 3.013344 0.375733
											}
										}
									}
								}
								JOINT LeftHandPinky1
								{
									OFFSET 10.518692 -0.960396 -5.730441
									CHANNELS 3 Xrotation Yrotation Zrotation
									JOINT LeftHandPinky2
									{
										OFFSET 2.861649 0.000000 0.000000
										CHANNELS 3 Xrotation Yrotation Zrotation
										JOINT LeftHandPinky3
										{
											OFFSET 2.863380 0.000000 0.000000
											CHANNELS 3 Xrotation Yrotation Zrotation
											End Site
											{
												OFFSET -0.843597 2.711159 0.369971
											}
										}
									}
								}
							}
							JOINT LSleeve
							{
								OFFSET 6.676277 -0.344902 -1.011730
								CHANNELS 3 Xrotation Yrotation Zrotation
								End Site
								{
									OFFSET 0.000000 14.885353 0.000000
								}
							}
						}
					}
				}
				JOINT RightShoulder
				{
					OFFSET -6.197800 13.665199 -4.064700
					CHANNELS 3 Xrotation Yrotation Zrotation
					JOINT RightArm
					{
						OFFSET -7.778100 -0.187103 -1.709300
						CHANNELS 3 Xrotation Yrotation Zrotation
						JOINT RightForeArm
						{
							OFFSET -22.049376 0.000000 0.000000
							CHANNELS 3 Xrotation Yrotation Zrotation
							JOINT RightHand
							{
								OFFSET -23.009392 0.000000 0.000000
								CHANNELS 3 Xrotation Yrotation Zrotation
								JOINT RightHandThumb1
								{
									OFFSET -3.507191 -2.063065 3.133727
									CHANNELS 3 Xrotation Yrotation Zrotation
									JOINT RightHandThumb2
									{
										OFFSET -3.101337 -1.790558 1.790558
										CHANNELS 3 Xrotation Yrotation Zrotation
										JOINT RightHandThumb3
										{
											OFFSET -3.058640 -1.765907 1.765906
											CHANNELS 3 Xrotation Yrotation Zrotation
											End Site
											{
												OFFSET 0.415260 3.926476 -0.049563
											}
										}
									}
								}
								JOINT RightHandIndex1
								{
									OFFSET -11.334419 -0.901459 3.706815
									CHANNELS 3 Xrotation Yrotation Zrotation
									JOINT RightHandIndex2
									{
										OFFSET -3.283112 0.000000 0.000000
										CHANNELS 3 Xrotation Yrotation Zrotation
										JOINT RightHandIndex3
										{
											OFFSET -3.323853 0.000000 0.000000
											CHANNELS 3 Xrotation Yrotation Zrotation
											End Site
											{
												OFFSET 1.135597 3.097809 0.402452
											}
										}
									}
								}
								JOINT RightHandMiddle1
								{
									OFFSET -11.335861 0.000000 0.000000
									CHANNELS 3 Xrotation Yrotation Zrotation
									JOINT RightHandMiddle2
									{
										OFFSET -3.410492 0.000000 0.000000
										CHANNELS 3 Xrotation Yrotation Zrotation
										JOINT RightHandMiddle3
										{
											OFFSET -3.312172 0.000000 0.000000
											CHANNELS 3 Xrotation Yrotation Zrotation
											End Site
											{
												OFFSET 1.150200 3.080154 0.400270
											}
										}
									}
								}
								JOINT RightHandRing1
								{
									OFFSET -11.514786 -0.013176 -3.003090
									CHANNELS 3 Xrotation Yrotation Zrotation
									JOINT RightHandRing2
									{
										OFFSET -3.053307 0.000000 0.000000
										CHANNELS 3 Xrotation Yrotation Zrotation
										JOINT RightHandRing3
										{
											OFFSET -3.295807 0.000000 0.000000
											CHANNELS 3 Xrotation Yrotation Zrotation
											End Site
											{
												OFFSET 1.281006 3.013344 0.375733
											}
										}
									}
								}
								JOINT RightHandPinky1
								{
									OFFSET -10.518692 -0.960396 -5.730441
									CHANNELS 3 Xrotation Yrotation Zrotation
									JOINT RightHandPinky2
									{
										OFFSET -2.861649 0.000000 0.000000
										CHANNELS 3 Xrotation Yrotation Zrotation
										JOINT RightHandPinky3
										{
											OFFSET -2.863380 0.000000 0.000000
											CHANNELS 3 Xrotation Yrotation Zrotation
											End Site
											{
												OFFSET 0.843597 2.711159 0.369971
											}
										}
									}
								}
							}
							JOINT RSleeve
							{
								OFFSET -6.676277 -0.344902 -1.011730
								CHANNELS 3 Xrotation Yrotation Zrotation
								End Site
								{
									OFFSET 0.000000 14.885353 0.000000
								}
							}
						}
					}
				}
				JOINT Backpack
				{
					OFFSET 0.000000 -2.471497 36.677502
					CHANNELS 3 Xrotation Yrotation Zrotation
					End Site
					{
						OFFSET 0.000000 20.427315 0.000000
					}
				}
				JOINT Hood
				{
					OFFSET 0.000000 18.754097 -10.431000
					CHANNELS 3 Xrotation Yrotation Zrotation
					JOINT Hood1
					{
						OFFSET 0.000000 -5.011002 -7.685901
						CHANNELS 3 Xrotation Yrotation Zrotation
						End Site
						{
							OFFSET 0.000000 9.175140 0.000000
						}
					}
				}
				JOINT LHoodieString
				{
					OFFSET 5.250500 16.397697 3.089900
					CHANNELS 3 Xrotation Yrotation Zrotation
					JOINT LHoodieString1
					{
						OFFSET 0.257700 -6.364304 3.694600
						CHANNELS 3 Xrotation Yrotation Zrotation
						JOINT LHoodieString2
						{
							OFFSET 0.000000 -9.643799 2.679100
							CHANNELS 3 Xrotation Yrotation Zrotation
							End Site
							{
								OFFSET 0.000000 10.009018 0.000000
							}
						}
					}
				}
				JOINT RHoodieString
				{
					OFFSET -5.250500 16.397697 3.089900
					CHANNELS 3 Xrotation Yrotation Zrotation
					JOINT RHoodieString1
					{
						OFFSET -0.257700 -6.364304 3.694600
						CHANNELS 3 Xrotation Yrotation Zrotation
						JOINT RHoodieString2
						{
							OFFSET 0.000000 -9.643799 2.679100
							CHANNELS 3 Xrotation Yrotation Zrotation
							End Site
							{
								OFFSET 0.000000 10.009018 0.000000
							}
						}
					}
				}
			}
			JOINT LBackpack_Strap
			{
				OFFSET 15.223200 -7.719803 -6.610900
				CHANNELS 3 Xrotation Yrotation Zrotation
				End Site
				{
					OFFSET 0.000000 16.040596 0.000000
				}
			}
			JOINT RBackpack_Strap
			{
				OFFSET -15.223000 -7.719803 -6.610900
				CHANNELS 3 Xrotation Yrotation Zrotation
				End Site
				{
					OFFSET 0.000000 16.040596 0.000000
				}
			}
		}
	}
	JOINT BoyFacialAnim_Joint
	{
		OFFSET 1.000000 -82.208099 -1.550900
		CHANNELS 3 Xrotation Yrotation Zrotation
		End Site
		{
			OFFSET 0.000000 30.012791 0.000000
		}
	}
}
MOTION
Frames: 4
Frame Time: 0.033333
0.018744 82.451065 0.246084 -3.753366 -5.223246 -3.509080 -0.000000 -0.000000 -0.000000 -11.794383 14.473434 10.861053 13.105937 1.995997 4.180437 1.435693 0.537143 -7.636215 -0.000000 0.000000 0.000000 -0.000000 0.000000 0.000000 -0.000000 -0.000000 -0.000001 1.330876 -10.339572 3.344511 5.907908 -9.742000 -3.276657 -2.955931 -1.622599 3.121157 -0.000000 -0.000000 -0.000000 -0.000000 -0.000000 -0.000000 -0.000000 0.000002 0.000000 3.303460 1.533697 2.481828 1.151890 0.339457 1.552798 1.126014 0.361543 1.555886 5.626311 -0.078963 0.454684 -7.563339 1.375723 -0.080567 0.000000 0.000000 -0.000000 0.000000 0.000000 -0.000000 0.000000 0.000000 -0.000000 1.049452 -17.442065 -12.319427 3.916267 -19.989261 -69.765253 -0.000006 -1.459364 -0.000004 -33.230407 -1.364833 -6.186618 -0.662984 2.159788 4.837068 11.855264 25.422162 17.058170 0.000002 -0.000002 -0.000002 0.018898 -0.969454 -7.593466 0.267873 1.752900 -17.375730 -0.000001 0.000000 -0.000002 -0.076309 2.665781 -15.696852 0.268764 1.755743 -17.404883 0.000003 -0.000001 -0.000004 0.136911 3.641772 -21.133522 0.386622 2.094787 -20.911910 -0.000002 0.000001 -0.000004 0.925302 5.557158 -27.127824 0.268815 1.755902 -17.406501 -0.000000 0.000000 0.000003 -0.000001 0.000000 0.000000 1.217900 15.347384 14.705892 13.158851 27.555141 58.785184 0.000002 6.693727 0.000002 -20.179096 -0.514094 6.782780 -1.665254 -0.174474 -4.219030 12.713000 -29.825483 -16.130578 -0.000002 0.000001 0.000002 0.038552 1.262300 6.823727 0.213731 -1.396039 17.407003 -0.000004 0.000003 0.000004 -0.136227 -2.205103 14.998880 0.214459 -1.398346 17.436903 0.000001 0.000001 0.000003 0.030614 -3.075752 20.451050 0.308442 -1.668272 20.948539 0.000000 0.000000 0.000004 0.748882 -4.885234 26.473764 0.214453 -1.398371 17.437251 0.000001 -0.000001 0.000000 -0.000001 0.000001 -0.000001 -0.000000 -0.000000 0.000000 -0.000000 -0.000000 0.000000 -0.000000 -0.000000 0.000000 -0.000000 -0.000000 0.000000 -0.000000 -0.000000 0.000000 -0.000000 -0.000000 0.000000 -0.000000 -0.000000 0.000000 -0.000000 -0.000000 0.000000 -0.000000 -0.000000 0.000000 0.000000 0.000000 -0.000000 0.000000 0.000000 -0.000000 -0.000000 -0.000000 -0.000000 
0.023506 82.429573 0.368985 -3.671021 -5.169266 -3.465014 -0.000000 0.000000 -0.000000 -11.903202 14.431274 10.841961 13.396071 1.980057 4.176857 1.125458 0.536410 -7.709617 -0.000000 0.000000 0.000000 -0.000000 0.000000 0.000000 0.000000 0.000001 -0.000001 1.186943 -10.311568 3.288874 6.220144 -9.876047 -3.326810 -3.205688 -1.627491 3.235510 0.000000 0.000000 0.000000 0.000000 0.000000 0.000000 0.000000 -0.000000 0.000000 3.298780 1.529079 2.502292 1.128839 0.325904 1.571158 1.102868 0.347470 1.574226 5.748398 -0.097884 0.419658 -7.568534 1.456153 -0.618951 -0.000000 -0.000000 0.000000 -0.000000 -0.000000 0.000000 -0.000000 -0.000000 0.000000 1.065420 -17.390667 -12.218963 4.055692 -19.945080 -69.861668 -0.000001 -1.475924 -0.000009 -33.208168 -1.315784 -6.207599 -0.706928 2.085534 4.823714 11.857516 25.422248 17.050953 0.000001 -0.000001 -0.000003 0.021389 -0.973883 -7.550602 0.267871 1.752895 -17.375738 -0.000001 -0.000001 -0.000004 -0.076707 2.657839 -15.621140 0.268766 1.755744 -17.404879 0.000002 0.000000 -0.000003 0.134256 3.633018 -21.090202 0.386243 2.093790 -20.901492 -0.000002 -0.000000 0.000003 0.910969 5.530585 -27.067734 0.268813 1.755901 -17.406479 -0.000002 0.000001 0.000002 -0.000002 -0.000000 0.000000 1.133987 15.300539 15.076051 14.452238 27.951946 57.082708 -0.000002 8.453463 -0.000017 -21.625591 0.453059 5.771931 -1.417704 1.018674 -2.992301 12.745404 -29.834225 -16.036717 0.000005 -0.000002 -0.000002 0.439171 -0.432146 10.839895 0.228538 -1.442411 18.004879 -0.000002 0.000000 0.000005 0.157550 -3.464398 22.201146 0.304108 -1.656899 20.798788 0.000002 0.000000 -0.000000 0.111232 -3.553372 27.758956 0.491784 -2.084824 26.543105 -0.000000 -0.000000 0.000000 1.463246 -5.935531 33.233139 0.325270 -1.711579 21.519213 -0.000003 -0.000001 -0.000000 0.000000 -0.000000 0.000001 -0.000000 -0.000000 -0.000000 -0.000000 -0.000000 -0.000000 -0.000000 -0.000000 -0.000000 -0.000000 -0.000000 -0.000000 -0.000000 -0.000000 -0.000000 -0.000000 -0.000000 -0.000000 -0.000000 -0.000000 -0.000000 -0.000000 -0.000000 -0.000000 -0.000000 -0.000000 -0.000000 -0.000000 0.000000 -0.000000 -0.000000 0.000000 -0.000000 -0.000000 0.000000 -0.000000 
0.021607 82.387177 0.485688 -3.527872 -5.090653 -3.392869 0.000000 -0.000000 0.000000 -12.137945 14.392563 10.849428 13.785063 1.928411 4.156763 0.789139 0.535974 -7.901772 0.000000 -0.000000 0.000000 0.000000 -0.000000 0.000000 0.000000 0.000000 -0.000000 0.783703 -10.274384 3.192320 6.901355 -10.013003 -3.392813 -3.628098 -1.700497 3.383332 0.000000 0.000000 0.000000 0.000000 0.000000 0.000000 0.000000 -0.000001 -0.000000 3.282831 1.507260 2.529487 1.094633 0.283280 1.600664 1.068439 0.303667 1.603363 5.965435 -0.130878 0.343446 -7.574282 1.598972 -1.617900 0.000000 -0.000000 -0.000000 0.000000 -0.000000 -0.000000 0.000000 -0.000000 -0.000000 1.091298 -17.298303 -12.053935 4.271306 -19.976370 -69.970603 0.000002 -1.616468 0.000006 -33.258151 -1.273286 -6.193823 -0.762320 1.951479 4.789474 11.872731 25.426465 17.001248 -0.000000 0.000000 -0.000002 0.030277 -0.989605 -7.398335 0.267873 1.752912 -17.375924 -0.000001 0.000000 -0.000002 -0.083013 2.622774 -15.480981 0.268766 1.755742 -17.404881 0.000002 -0.000000 -0.000001 0.124304 3.602125 -20.977396 0.385445 2.091710 -20.879718 -0.000000 0.000001 -0.000002 0.887298 5.495779 -26.955958 0.268812 1.755906 -17.406469 -0.000001 0.000000 0.000003 -0.000001 0.000000 -0.000000 1.059792 15.142273 15.479657 15.796788 27.906411 54.727061 -0.000003 11.660747 0.000018 -23.660699 2.155323 4.008978 -1.143031 2.123991 -2.072366 12.717707 -29.794125 -16.124304 -0.000001 -0.000000 -0.000000 0.955353 -1.891612 15.128869 0.246992 -1.497996 18.724375 -0.000001 0.000000 0.000002 0.557033 -4.400416 28.208736 0.413742 -1.920747 24.309965 0.000001 0.000002 0.000000 1.000399 -5.121930 33.251499 0.648461 -2.372495 30.570468 -0.000002 -0.000001 0.000004 1.953794 -6.391624 38.738736 0.424374 -1.944114 24.625277 -0.000002 -0.000001 -0.000002 -0.000001 -0.000000 -0.000001 0.000000 0.000000 -0.000000 0.000000 0.000000 -0.000000 0.000000 0.000000 -0.000000 0.000000 0.000000 -0.000000 0.000000 0.000000 -0.000000 0.000000 0.000000 -0.000000 0.000000 0.000000 -0.000000 0.000000 0.000000 -0.000000 0.000000 0.000000 -0.000000 0.000000 0.000000 -0.000000 0.000000 0.000000 -0.000000 0.000000 -0.000000 0.000000 
0.015376 82.338837 0.590057 -3.328170 -4.964980 -3.273445 -0.000000 0.000000 0.000000 -12.435688 14.379824 10.857176 14.133835 1.809159 4.088664 0.549562 0.535626 -8.180056 -0.000000 -0.000000 0.000000 -0.000000 -0.000000 0.000000 -0.000000 -0.000000 0.000001 0.226670 -10.220609 3.067546 7.751196 -10.008581 -3.483163 -4.141076 -1.996002 3.534039 -0.000000 -0.000000 -0.000000 -0.000000 -0.000000 -0.000000 0.000000 -0.000002 0.000000 3.258354 1.467148 2.563971 1.059388 0.207619 1.645473 1.032875 0.226257 1.647258 6.330402 -0.183411 0.200943 -7.463558 1.788701 -3.097377 0.000000 -0.000000 0.000000 0.000000 -0.000000 0.000000 0.000000 -0.000000 0.000000 1.124079 -17.214233 -11.846650 4.608075 -20.074467 -70.044136 0.000003 -1.943852 -0.000027 -33.384558 -1.237944 -6.127222 -0.984520 1.779211 4.861941 11.895055 25.436869 16.927111 -0.000002 0.000001 -0.000001 0.032874 -1.017670 -7.279225 0.267278 1.750986 -17.356214 0.000001 -0.000001 -0.000000 -0.091084 2.581175 -15.345804 0.268767 1.755746 -17.404881 0.000002 0.000000 -0.000001 0.116326 3.576469 -20.871805 0.384797 2.090005 -20.861880 -0.000000 -0.000001 -0.000001 0.845845 5.446890 -26.876009 0.268776 1.755783 -17.405274 -0.000001 0.000000 -0.000000 0.000002 0.000000 0.000001 1.010969 14.849507 15.761618 17.567887 28.310992 51.411510 0.000000 16.574086 0.000000 -25.320888 4.278124 1.139439 -0.528684 2.258740 -1.521687 12.364242 -29.747274 -17.139955 0.000003 0.000002 0.000000 1.320941 -2.741762 19.296608 0.258268 -1.530848 19.151116 -0.000002 -0.000000 -0.000004 0.943679 -5.038384 33.013306 0.553113 -2.203234 28.181960 0.000001 -0.000001 -0.000001 2.180637 -6.637689 37.372329 0.842458 -2.673548 34.975076 -0.000001 -0.000001 0.000000 2.313373 -6.637765 42.976001 0.534891 -2.168901 27.704241 -0.000005 0.000002 0.000001 -0.000003 0.000000 -0.000002 -0.000000 0.000000 0.000000 -0.000000 0.000000 0.000000 -0.000000 0.000000 0.000000 -0.000000 0.000000 0.000000 -0.000000 0.000000 0.000000 -0.000000 -0.000000 0.000000 -0.000000 0.000000 0.000000 -0.000000 0.000000 0.000000 -0.000000 -0.000000 0.000000 0.000000 -0.000000 0.000000 0.000000 -0.000000 0.000000 -0.000000 0.000000 0.000000 
